<?xml version="1.0" encoding="utf-8"?>
<!-- Generator: Adobe Illustrator 20.0.0, SVG Export Plug-In . SVG Version: 6.00 Build 0)  -->
<svg version="1.1" id="Layer_1" xmlns="http://www.w3.org/2000/svg" xmlns:xlink="http://www.w3.org/1999/xlink" x="0px" y="0px"
	 width="38px" height="36px" viewBox="0 0 38 36" style="enable-background:new 0 0 38 36;" xml:space="preserve">
<style type="text/css">
	.st0{fill:#42B4E6;}
</style>
<g>
	<path class="st0" d="M10.2,21.5c0,0.2-0.1,0.3-0.3,0.3H6.6c-0.2,0-0.3-0.1-0.3-0.3v-3.3c0-0.2,0.1-0.3,0.3-0.3h3.3
		c0.2,0,0.3,0.1,0.3,0.3V21.5z"/>
	<path class="st0" d="M17.1,21.5c0,0.2-0.1,0.3-0.3,0.3h-3.3c-0.2,0-0.3-0.1-0.3-0.3v-3.3c0-0.2,0.1-0.3,0.3-0.3h3.3
		c0.2,0,0.3,0.1,0.3,0.3V21.5z"/>
	<path class="st0" d="M24,21.5c0,0.2-0.1,0.3-0.3,0.3h-3.3c-0.2,0-0.3-0.1-0.3-0.3v-3.3c0-0.2,0.1-0.3,0.3-0.3h3.3
		c0.2,0,0.3,0.1,0.3,0.3V21.5z"/>
	<path class="st0" d="M30.9,21.5c0,0.2-0.1,0.3-0.3,0.3h-3.3c-0.2,0-0.3-0.1-0.3-0.3v-3.3c0-0.2,0.1-0.3,0.3-0.3h3.3
		c0.2,0,0.3,0.1,0.3,0.3V21.5z"/>
	<path class="st0" d="M10.2,28.8c0,0.2-0.1,0.3-0.3,0.3H6.6c-0.2,0-0.3-0.1-0.3-0.3v-3.3c0-0.2,0.1-0.3,0.3-0.3h3.3
		c0.2,0,0.3,0.1,0.3,0.3V28.8z"/>
	<path class="st0" d="M17.1,28.8c0,0.2-0.1,0.3-0.3,0.3h-3.3c-0.2,0-0.3-0.1-0.3-0.3v-3.3c0-0.2,0.1-0.3,0.3-0.3h3.3
		c0.2,0,0.3,0.1,0.3,0.3V28.8z"/>
	<path class="st0" d="M24,28.8c0,0.2-0.1,0.3-0.3,0.3h-3.3c-0.2,0-0.3-0.1-0.3-0.3v-3.3c0-0.2,0.1-0.3,0.3-0.3h3.3
		c0.2,0,0.3,0.1,0.3,0.3V28.8z"/>
	<path class="st0" d="M30.9,28.8c0,0.2-0.1,0.3-0.3,0.3h-3.3c-0.2,0-0.3-0.1-0.3-0.3v-3.3c0-0.2,0.1-0.3,0.3-0.3h3.3
		c0.2,0,0.3,0.1,0.3,0.3V28.8z"/>
	<path class="st0" d="M35.9,3H32V1.2C32,0.5,30.9,0,30.2,0H29c-0.8,0-1,0.5-1,1.2V3H10V1.2C10,0.5,9.6,0,8.8,0H7.7
		C6.9,0,6,0.5,6,1.2V3H1.3C0.3,3,0,3.9,0,4.8v29.9C0,35.7,0.3,36,1.3,36h34.6c0.9,0,2.1-0.3,2.1-1.2V4.8C38,3.9,36.8,3,35.9,3z
		 M33,31.3c0,0.7-0.6,0.7-1.3,0.7H5.5C4.8,32,4,31.9,4,31.3V8.4C4,7.7,4.8,7,5.5,7H6v1.4C6,9.2,6.9,10,7.7,10h1.2
		C9.6,10,10,9.2,10,8.4V7h18v1.4c0,0.8,0.2,1.6,1,1.6h1.2c0.8,0,1.8-0.8,1.8-1.6V7h-0.3C32.4,7,33,7.7,33,8.4V31.3z"/>
	<path class="st0" d="M23.6,15.2h-10c-0.5,0-1-0.4-1-1v-3.4c0-0.5,0.4-1,1-1h10c0.5,0,1,0.4,1,1v3.4C24.6,14.7,24.1,15.2,23.6,15.2z
		"/>
</g>
</svg>
