<?xml version="1.0" encoding="utf-8"?>
<!-- Generator: Adobe Illustrator 20.0.0, SVG Export Plug-In . SVG Version: 6.00 Build 0)  -->
<svg version="1.1" id="Layer_1" xmlns="http://www.w3.org/2000/svg" xmlns:xlink="http://www.w3.org/1999/xlink" x="0px" y="0px"
	 width="33.2px" height="33.2px" viewBox="0 0 33.2 33.2" style="enable-background:new 0 0 33.2 33.2;" xml:space="preserve">
<style type="text/css">
	.st0{opacity:0.9;fill:#FFFFFF;}
	.st1{fill:#4FA600;}
	.st2{opacity:0.8;fill:none;stroke:#000000;stroke-width:1.0007;stroke-miterlimit:10;}
</style>
<g>
	<path class="st0" d="M27.2,0H6.1C3,0,0.5,2.5,0.5,5.6v21.1c0,3.1,2.5,5.5,5.5,5.5h21.1c3.1,0,5.5-2.5,5.5-5.5V5.6
		C32.7,2.5,30.2,0,27.2,0z"/>
	<g>
		<path class="st1" d="M4.7,27.6h23.9c0.6,0,1.1-0.5,1.1-1.1v-8.2c0-0.6-0.5-1.1-1.1-1.1h-2.8c-0.6,0-1.1,0.5-1.1,1.1
			c0,0.6,0.5,1.1,1.1,1.1h1.7v6H5.8v-6h1.7c0.6,0,1.1-0.5,1.1-1.1c0-0.6-0.5-1.1-1.1-1.1H4.7c-0.6,0-1.1,0.5-1.1,1.1v8.2
			C3.6,27.1,4.1,27.6,4.7,27.6z"/>
		<path class="st1" d="M15.8,23.2c0.2,0.3,0.5,0.5,0.9,0.5h0c0.4,0,0.7-0.3,0.9-0.6l5.1-6.6c0.3-0.3,0.3-0.8,0.1-1.2
			c-0.2-0.4-0.6-0.6-1-0.6h-1.2v-9c0,0,0,0,0,0c0-0.6-0.5-1.2-1.1-1.2l-5.8,0c-0.6,0-1.2,0.5-1.2,1.2c0,0,0,0.1,0,0.1v8.9h-0.9
			c-0.4,0-0.8,0.2-1,0.6c-0.2,0.4-0.2,0.8,0.1,1.1L15.8,23.2z M14.7,15.8v-9h3.6v9c0,0.6,0.4,1.2,1,1.2h0.1l-2.8,3.6l-2.9-3.7
			C14.3,16.8,14.7,16.3,14.7,15.8z"/>
	</g>
	<path class="st2" d="M27.2,0.5H6C3,0.5,0.5,3,0.5,6v21.1c0,3.1,2.5,5.5,5.5,5.5h21.1c3.1,0,5.5-2.5,5.5-5.5V6
		C32.7,3,30.3,0.5,27.2,0.5z"/>
</g>
</svg>
