<?xml version="1.0" encoding="utf-8"?>
<!-- Generator: Adobe Illustrator 20.0.0, SVG Export Plug-In . SVG Version: 6.00 Build 0)  -->
<svg version="1.1" id="Layer_1" xmlns="http://www.w3.org/2000/svg" xmlns:xlink="http://www.w3.org/1999/xlink" x="0px" y="0px"
	 width="43.1px" height="38px" viewBox="0 0 43.1 38" style="enable-background:new 0 0 43.1 38;" xml:space="preserve">
<style type="text/css">
	.st0{fill:#4FA600;}
</style>
<g>
	<path class="st0" d="M41.3,38H1.8c-1,0-1.8-0.8-1.8-1.8V22.6c0-1,0.8-1.8,1.8-1.8h4.6c1,0,1.8,0.8,1.8,1.8c0,1-0.8,1.8-1.8,1.8H3.6
		v10h35.9v-10h-2.7c-1,0-1.8-0.8-1.8-1.8c0-1,0.8-1.8,1.8-1.8h4.6c1,0,1.8,0.8,1.8,1.8v13.6C43.1,37.2,42.3,38,41.3,38z"/>
	<path class="st0" d="M31.6,17.7c-0.3-0.6-1-0.9-1.7-0.9h-2V2c0,0,0,0,0,0c0-1.1-0.8-2-1.8-2l-9.5,0l0,0c-1.1,0-1.9,0.9-1.9,1.9
		c0,0.1,0,0.1,0,0.2v14.7h-1.5c-0.7,0-1.4,0.3-1.7,0.9c-0.3,0.6-0.3,1.3,0.2,1.9l8.5,11.1c0.3,0.5,0.9,0.9,1.5,0.9h0
		c0.6,0,1.1-0.4,1.5-0.9l8.4-10.9C31.9,19.1,32,18.4,31.6,17.7z M21.6,26.4l-4.7-6.1c0.9-0.2,1.5-1,1.5-1.8V3.6h5.9v14.9
		c0,1,0.6,2,1.7,2h0.2L21.6,26.4z"/>
</g>
</svg>
