<?xml version="1.0" encoding="utf-8"?>
<!-- Generator: Adobe Illustrator 20.0.0, SVG Export Plug-In . SVG Version: 6.00 Build 0)  -->
<svg version="1.1" id="Layer_1" xmlns="http://www.w3.org/2000/svg" xmlns:xlink="http://www.w3.org/1999/xlink" x="0px" y="0px"
	 width="33.2px" height="33.2px" viewBox="0 0 33.2 33.2" style="enable-background:new 0 0 33.2 33.2;" xml:space="preserve">
<style type="text/css">
	.st0{opacity:0.7;}
	.st1{fill:#FFFFFF;}
	.st2{fill:none;stroke:#000000;stroke-miterlimit:10;}
</style>
<g class="st0">
	<path d="M10.5,15.8c0.2-0.4,0.6-0.6,1-0.6h0.9V6.4c0,0,0-0.1,0-0.1c0-0.6,0.5-1.2,1.2-1.2l5.8,0c0.6,0,1.1,0.6,1.1,1.2c0,0,0,0,0,0
		v9h1.2c0.4,0,0.8,0.2,1,0.6c0.2,0.4,0.2,0.8-0.1,1.2l-5.1,6.6c-0.2,0.3-0.5,0.6-0.9,0.6h0c-0.4,0-0.7-0.3-0.9-0.5L10.6,17
		C10.4,16.6,10.3,16.2,10.5,15.8z"/>
	<path d="M29.7,27c0,0.6-0.5,1.1-1.1,1.1H4.7c-0.6,0-1.1-0.5-1.1-1.1v-8.2c0-0.6,0.5-1.1,1.1-1.1h2.8c0.6,0,1.1,0.5,1.1,1.1
		c0,0.6-0.5,1.1-1.1,1.1H5.8v6h21.7v-6h-1.7c-0.6,0-1.1-0.5-1.1-1.1c0-0.6,0.5-1.1,1.1-1.1h2.8c0.6,0,1.1,0.5,1.1,1.1V27z"/>
	<path class="st1" d="M27.2,0.5H6.1C3,0.5,0.5,3,0.5,6v21.1c0,3.1,2.5,5.5,5.5,5.5h21.1c3.1,0,5.5-2.5,5.5-5.5V6
		C32.7,3,30.3,0.5,27.2,0.5z M10.5,15.8c0.2-0.4,0.6-0.6,1-0.6h0.9V6.4c0,0,0-0.1,0-0.1c0-0.6,0.5-1.2,1.2-1.2l5.8,0
		c0.6,0,1.1,0.6,1.1,1.2c0,0,0,0,0,0v9h1.2c0.4,0,0.8,0.2,1,0.6c0.2,0.4,0.2,0.8-0.1,1.2l-5.1,6.6c-0.2,0.3-0.5,0.6-0.9,0.6h0
		c-0.4,0-0.7-0.3-0.9-0.5L10.6,17C10.4,16.6,10.3,16.2,10.5,15.8z M29.7,27c0,0.6-0.5,1.1-1.1,1.1H4.7c-0.6,0-1.1-0.5-1.1-1.1v-8.2
		c0-0.6,0.5-1.1,1.1-1.1h2.8c0.6,0,1.1,0.5,1.1,1.1c0,0.6-0.5,1.1-1.1,1.1H5.8v6h21.7v-6h-1.7c-0.6,0-1.1-0.5-1.1-1.1
		c0-0.6,0.5-1.1,1.1-1.1h2.8c0.6,0,1.1,0.5,1.1,1.1V27z"/>
	<path class="st1" d="M19.4,17.5h-0.1c-0.6,0-1-0.6-1-1.2v-9h-3.6v9c0,0.5-0.4,1-0.9,1.1l2.9,3.7L19.4,17.5z"/>
	<path class="st2" d="M27.2,0.5H6C3,0.5,0.5,3,0.5,6v21.1c0,3.1,2.5,5.5,5.5,5.5h21.1c3.1,0,5.5-2.5,5.5-5.5V6
		C32.7,3,30.2,0.5,27.2,0.5z"/>
</g>
</svg>
