<?xml version="1.0" encoding="utf-8"?>
<!-- Generator: Adobe Illustrator 20.0.0, SVG Export Plug-In . SVG Version: 6.00 Build 0)  -->
<svg version="1.1" id="Layer_1" xmlns="http://www.w3.org/2000/svg" xmlns:xlink="http://www.w3.org/1999/xlink" x="0px" y="0px"
	 width="24.9px" height="38.1px" viewBox="0 0 24.9 38.1" style="enable-background:new 0 0 24.9 38.1;" xml:space="preserve">
<style type="text/css">
	.st0{fill:#9FA0A4;}
</style>
<path class="st0" d="M6.6,0c0,0,7,3.7-1.5,15.4c0,0-14.6,16.1,5.4,21.1c0,0-3.8-3.7-1.7-8.3c0,0,3.3,2.2,4.4,7.5
	c0,0,2.6-2.8,1.7-6.8c0,0,4.6,2.9,1.8,9.2c0,0,6.4-1.1,8.1-13.3c0.6-4.1-0.6-11.3-6.8-14.5c2,6.7-2.6,10.5-4.2,10.3
	c0,0-0.8,0-0.4-1.1c0,0,3.5-8.4,0.1-15.4C13.5,4.1,11.6,0,6.6,0z"/>
</svg>
