<?xml version="1.0" encoding="utf-8"?>
<!-- Generator: Adobe Illustrator 20.0.0, SVG Export Plug-In . SVG Version: 6.00 Build 0)  -->
<svg version="1.1" id="Layer_1" xmlns="http://www.w3.org/2000/svg" xmlns:xlink="http://www.w3.org/1999/xlink" x="0px" y="0px"
	 width="160px" height="39.8px" viewBox="0 0 160 39.8" style="enable-background:new 0 0 160 39.8;" xml:space="preserve">
<style type="text/css">
	.st0{fill:#FFFFFF;}
</style>
<g>
	<path class="st0" d="M35.8,7.7c-1.6-1.4-3.6-2.2-5.6-2.2c-1.1,0-2.1,0.2-3.1,0.7C26.3,2.6,23.1,0,19.3,0c-2.1,0-4.1,0.8-5.6,2.3
		c-1.2,1.2-2,2.7-2.3,4.3c-0.1,0-0.3,0-0.4,0c-3.4,0-6.1,2.5-6.4,5.7C1.9,13.4,0,16.1,0,19.1c0,4.4,2.7,7.4,6.6,7.4c0,0,0,0,0,0
		l1.1,0c0.6,0,1.1-0.5,1.1-1.1v-4.2h1.8v4.2c0,0.6,0.5,1.1,1.1,1.1h5.7c0.6,0,1.1-0.5,1.1-1.1v-6.9c0-0.6-0.5-1.1-1.1-1.1h-0.1
		l2.7-3.7l2.7,3.7c-0.5,0.1-0.9,0.6-0.9,1.1v6.9c0,0.6,0.5,1.1,1.1,1.1h5.6c0.6,0,1.1-0.5,1.1-1.1v-6h1.8v6c0,0.6,0.5,1.1,1.1,1.1
		h3.3c0.6,0,1.1-0.5,1.1-1.1c0-0.6-0.5-1.1-1.1-1.1h-2.2v-6c0-0.6-0.5-1.1-1.1-1.1h-4c-0.6,0-1.1,0.5-1.1,1.1v6H24v-4.6h0.9
		c0.4,0,0.8-0.2,1-0.6c0.2-0.4,0.2-0.8-0.1-1.2l-4.9-6.7c-0.2-0.3-0.5-0.5-0.9-0.5c0,0,0,0,0,0c-0.4,0-0.7,0.2-0.9,0.5l-4.9,6.7
		c-0.2,0.3-0.3,0.8-0.1,1.2c0.2,0.4,0.6,0.6,1,0.6h1.2v4.6h-3.4v-4.2c0-0.6-0.5-1.1-1.1-1.1H7.6c-0.6,0-1.1,0.5-1.1,1.1v4.2
		c-2,0-4.3-1.4-4.3-5.2c0-2.3,1.6-4.4,3.8-5C6.5,14,6.8,13.5,6.8,13c0-0.1,0-0.1,0-0.2c0-2.2,1.8-4,4.1-4c0.4,0,0.7,0.1,1.1,0.1
		c0.3,0.1,0.7,0,1-0.2c0.3-0.2,0.4-0.5,0.5-0.9c0.1-3.2,2.7-5.7,5.9-5.7c3.2,0,5.8,2.6,5.9,5.8c0,0.4,0.3,0.8,0.6,1
		c0.4,0.2,0.8,0.1,1.2-0.1c0.9-0.8,2.1-1.1,3.2-1.1c3,0,5.9,2.7,5.9,5.4c0,0.9-0.2,1.7-0.6,2.5c-0.3,0.5-0.1,1.2,0.4,1.5
		c0.5,0.3,1.2,0.1,1.5-0.4c0.6-1.1,0.9-2.3,0.9-3.5C38.4,11.2,37.5,9.2,35.8,7.7z"/>
	<g>
		<path class="st0" d="M44.7,25.1V10.5c0-0.9,0.6-1.5,1.6-1.5h0.7c1.1,0,1.4,0.4,1.8,1.4l4.1,9.2l4.1-9.2c0.4-1,0.7-1.4,1.8-1.4h0.7
			c1,0,1.6,0.6,1.6,1.5v14.6c0,0.8-0.3,1.2-1.1,1.2h-0.4c-0.8,0-1.1-0.4-1.1-1.2V12.5L54.5,21c-0.3,0.7-0.6,1.2-1.8,1.2
			c-1.2,0-1.4-0.5-1.8-1.2l-3.7-8.5v12.5c0,0.8-0.3,1.2-1.1,1.2h-0.4C45,26.3,44.7,25.9,44.7,25.1z"/>
		<path class="st0" d="M69.1,26.5c-3.4,0-4.9-2.3-4.9-5.5v-6.5c0-1,0.5-1.3,1.1-1.3h0.3c0.7,0,1.2,0.3,1.2,1.3v6.2
			c0,2.2,1.1,3.5,3.1,3.5c1.6,0,2.8-0.9,3.5-2.3v-7.4c0-1,0.5-1.3,1.1-1.3h0.3c0.7,0,1.2,0.3,1.2,1.3V26c0,0.1-0.4,0.3-0.9,0.3
			c-0.8,0-1.6-0.4-1.7-2C72.5,25.6,71.1,26.5,69.1,26.5z"/>
		<path class="st0" d="M79.3,25.1V8.3c0-0.1,0.5-0.3,1-0.3c0.8,0,1.7,0.4,1.7,2.3v14.8c0,1-0.5,1.2-1.2,1.2h-0.3
			C79.9,26.3,79.3,26,79.3,25.1z"/>
		<path class="st0" d="M85.4,15.6c-0.8,0-1.1-0.3-1.1-1v-0.2c0-0.6,0.3-1,1.1-1h0.9v-2c0-0.9,0.5-1.2,1.2-1.2h0.3
			c0.7,0,1.1,0.3,1.1,1.2v2h2.9c0.8,0,1.1,0.3,1.1,1v0.2c0,0.7-0.3,1-1.1,1h-2.9v6.5c0,1.6,0.5,2.4,1.7,2.4c0.8,0,1.4-0.4,1.8-0.9
			c0.1-0.1,0.7,0.3,0.7,1.1c0,1-1.1,1.9-3,1.9c-2.6,0-3.8-1.5-3.8-4.2v-6.7H85.4z"/>
		<path class="st0" d="M95.6,9.3c0-1,0.6-1.5,1.6-1.5c1,0,1.5,0.5,1.5,1.5c0,1-0.6,1.5-1.6,1.5C96.2,10.7,95.6,10.2,95.6,9.3z
			 M95.8,25.1V14.6c0-1,0.5-1.3,1.2-1.3h0.3c0.7,0,1.2,0.3,1.2,1.3v10.5c0,1-0.5,1.2-1.2,1.2H97C96.3,26.3,95.8,26,95.8,25.1z"/>
		<path class="st0" d="M101.1,23.2c0-0.9,1.2-1.6,1.2-1.5c1,1.4,2.8,2.6,5.2,2.6c2.4,0,3.7-1,3.7-2.7c0-1.9-2-2.4-4.3-2.9
			c-2.7-0.6-5.4-1.5-5.4-5c0-2.9,2.5-5,6.2-5c3.8,0,5.9,1.8,5.9,3.1c0,1-1.2,1.6-1.3,1.5c-0.9-1.3-2.6-2.3-4.6-2.3
			c-2.2,0-3.6,1-3.6,2.6c0,1.9,1.7,2.2,4.1,2.7c2.9,0.7,5.7,1.8,5.7,5.1c0,3.2-2.4,5.1-6.5,5.1C103.4,26.6,101.1,24.6,101.1,23.2z"
			/>
		<path class="st0" d="M116.4,9.3c0-1,0.6-1.5,1.6-1.5c1,0,1.5,0.5,1.5,1.5c0,1-0.6,1.5-1.6,1.5C117,10.7,116.4,10.2,116.4,9.3z
			 M116.7,25.1V14.6c0-1,0.5-1.3,1.2-1.3h0.3c0.7,0,1.2,0.3,1.2,1.3v10.5c0,1-0.5,1.2-1.2,1.2h-0.3C117.2,26.3,116.7,26,116.7,25.1z
			"/>
		<path class="st0" d="M134,13.3c0.5,0,1,0.2,1,0.3v11.8c0,4-2.3,6.1-6.6,6.1c-3.7,0-5.6-0.9-5.6-2.4c0-0.6,0.7-1.2,1.3-1.2
			c1,0.7,1.9,1.4,4.2,1.4c2.6,0,4-1.3,4-3.9v-1.8c-1,1.5-2.5,2.3-4.5,2.3c-3.5,0-5.9-2.5-5.9-6.4c0-3.7,2.6-6.5,6.1-6.5
			c2.1,0,3.7,0.9,4.4,2C132.5,13.7,133.3,13.3,134,13.3z M128.4,15.3c-2.4,0-4,1.8-4,4.3c0,2.6,1.5,4.3,3.9,4.3c2.1,0,4-1.5,4-3.6
			v-2.5C131.7,16.2,130.3,15.3,128.4,15.3z"/>
		<path class="st0" d="M144.5,13.1c3.4,0,4.9,2.3,4.9,5.5v6.4c0,1-0.5,1.2-1.2,1.2H148c-0.7,0-1.2-0.3-1.2-1.2V19
			c0-2.2-1.1-3.5-2.9-3.5c-2.2,0-3.6,1.4-3.6,3.7v5.9c0,1-0.5,1.2-1.2,1.2h-0.3c-0.7,0-1.2-0.3-1.2-1.2V8.3c0-0.1,0.4-0.3,1-0.3
			c0.8,0,1.7,0.4,1.7,2.3v5.2C141.1,14.1,142.5,13.1,144.5,13.1z"/>
		<path class="st0" d="M152.3,15.6c-0.8,0-1.1-0.3-1.1-1v-0.2c0-0.6,0.3-1,1.1-1h0.9v-2c0-0.9,0.5-1.2,1.2-1.2h0.3
			c0.7,0,1.1,0.3,1.1,1.2v2h2.9c0.8,0,1.1,0.3,1.1,1v0.2c0,0.7-0.3,1-1.1,1h-2.9v6.5c0,1.6,0.5,2.4,1.7,2.4c0.8,0,1.4-0.4,1.8-0.9
			c0.1-0.1,0.7,0.3,0.7,1.1c0,1-1.1,1.9-3,1.9c-2.6,0-3.8-1.5-3.8-4.2v-6.7H152.3z"/>
	</g>
	<g>
		<path class="st0" d="M130.6,39.5l-0.9-3.3c0,0,0.2-0.2,0.5-0.2c0.2,0,0.3,0.1,0.4,0.4l0.6,2.6l0.7-2.2c0.1-0.2,0.2-0.3,0.5-0.3
			c0.3,0,0.4,0.1,0.5,0.3l0.7,2.2l0.6-2.6c0.1-0.3,0.2-0.4,0.4-0.4c0.2,0,0.4,0.2,0.4,0.2l-0.9,3.3c0,0.2-0.2,0.2-0.5,0.2
			c-0.3,0-0.4-0.1-0.5-0.3l-0.7-2.2l-0.7,2.2c-0.1,0.2-0.2,0.3-0.5,0.3C130.8,39.7,130.6,39.7,130.6,39.5z"/>
		<path class="st0" d="M137.1,39.2c0.6,0,1-0.3,1.2-0.6c0,0,0.4,0.1,0.4,0.4s-0.6,0.8-1.6,0.8c-1.2,0-2-0.8-2-1.9c0-1.1,0.8-2,1.9-2
			c1.1,0,1.8,0.8,1.8,1.9v0.1c0,0.2-0.1,0.2-0.2,0.2h-2.7C135.9,38.7,136.4,39.2,137.1,39.2z M138.1,37.5c0-0.6-0.4-1.1-1-1.1
			c-0.6,0-1.1,0.4-1.2,1.1H138.1z"/>
		<path class="st0" d="M140.3,39.4c0,0.3-0.1,0.4-0.3,0.4h-0.1c-0.2,0-0.3-0.1-0.3-0.4v-4.9c0,0,0.1-0.1,0.3-0.1
			c0.2,0,0.5,0.1,0.5,0.7v1.5c0.3-0.4,0.7-0.7,1.3-0.7c1,0,1.7,0.8,1.7,1.9c0,1.2-0.7,1.9-1.7,1.9c-0.6,0-1.1-0.3-1.3-0.7V39.4z
			 M140.3,38.1c0,0.6,0.5,1.1,1.1,1.1c0.7,0,1.2-0.5,1.2-1.3c0-0.8-0.5-1.3-1.1-1.3c-0.6,0-1,0.3-1.2,0.8V38.1z"/>
		<path class="st0" d="M147.7,36.4c0.1-0.4,0.3-0.5,0.5-0.5c0.2,0,0.4,0.2,0.4,0.2l-1.3,3.3c-0.1,0.2-0.2,0.2-0.5,0.2
			c-0.3,0-0.4-0.1-0.5-0.2l-1.4-3.3c0,0,0.2-0.2,0.4-0.2c0.2,0,0.4,0.1,0.5,0.5l0.9,2.6L147.7,36.4z"/>
		<path class="st0" d="M149.1,34.8c0-0.3,0.2-0.4,0.5-0.4c0.3,0,0.4,0.2,0.4,0.4c0,0.3-0.2,0.4-0.5,0.4
			C149.3,35.2,149.1,35.1,149.1,34.8z M149.2,39.4v-3c0-0.3,0.1-0.4,0.3-0.4h0.1c0.2,0,0.3,0.1,0.3,0.4v3c0,0.3-0.1,0.4-0.3,0.4
			h-0.1C149.3,39.7,149.2,39.6,149.2,39.4z"/>
		<path class="st0" d="M152.7,39.2c0.6,0,1-0.3,1.2-0.6c0,0,0.4,0.1,0.4,0.4s-0.6,0.8-1.6,0.8c-1.2,0-2-0.8-2-1.9c0-1.1,0.8-2,1.9-2
			c1.1,0,1.8,0.8,1.8,1.9v0.1c0,0.2-0.1,0.2-0.2,0.2h-2.7C151.5,38.7,152,39.2,152.7,39.2z M153.6,37.5c0-0.6-0.4-1.1-1-1.1
			c-0.6,0-1.1,0.4-1.2,1.1H153.6z"/>
		<path class="st0" d="M155.7,39.5l-0.9-3.3c0,0,0.2-0.2,0.5-0.2c0.2,0,0.3,0.1,0.4,0.4l0.6,2.6l0.7-2.2c0.1-0.2,0.2-0.3,0.5-0.3
			c0.3,0,0.4,0.1,0.5,0.3l0.7,2.2l0.6-2.6c0.1-0.3,0.2-0.4,0.4-0.4c0.2,0,0.4,0.2,0.4,0.2l-0.9,3.3c0,0.2-0.2,0.2-0.5,0.2
			c-0.3,0-0.4-0.1-0.5-0.3l-0.7-2.2l-0.7,2.2c-0.1,0.2-0.2,0.3-0.5,0.3C155.9,39.7,155.7,39.7,155.7,39.5z"/>
	</g>
</g>
</svg>
